<?xml version="1.0" encoding="utf-8"?>
<!-- Generator: Adobe Illustrator 24.3.0, SVG Export Plug-In . SVG Version: 6.00 Build 0)  -->
<svg version="1.1" id="Capa_1" xmlns="http://www.w3.org/2000/svg" xmlns:xlink="http://www.w3.org/1999/xlink" x="0px" y="0px"
	 viewBox="0 0 284 284.3" style="enable-background:new 0 0 284 284.3;" xml:space="preserve">
<g id="XMLID_2_">
	<path d="M218.5,11.2c14.9-14.9,39.2-15,54.1-0.1s15,39.2,0.1,54.1l-26.4,26.4l0.1,0.2l-50,50.1l50.1,50l-0.1,0.2l26.4,26.4
		c14.9,14.9,15,39.2,0.1,54.1s-39.2,15-54.1,0.1L142,196.4l-76.5,76.7c-14.9,14.9-39.2,15-54.1,0.1s-15-39.2-0.1-54.1l26.4-26.4
		l-0.1-0.2l50-50.1l-50.1-50l0.1-0.2L11.2,65.6C-3.7,50.7-3.7,26.4,11.1,11.5C26-3.4,50.3-3.5,65.2,11.4l76.7,76.4L218.5,11.2z"/>
</g>
</svg>
