<?xml version="1.0" encoding="utf-8"?>
<!-- Generator: Adobe Illustrator 24.3.0, SVG Export Plug-In . SVG Version: 6.00 Build 0)  -->
<svg version="1.1" id="Capa_1" xmlns="http://www.w3.org/2000/svg" xmlns:xlink="http://www.w3.org/1999/xlink" x="0px" y="0px"
	 viewBox="0 0 369.7 369.7" style="enable-background:new 0 0 369.7 369.7;" xml:space="preserve">
<style type="text/css">
	.st0{fill:#524DD0;}
</style>
<g id="XMLID_2_">
	<path class="st0" d="M146.4,38.3c0-21.1,17.1-38.3,38.2-38.3c21.1,0,38.3,17.1,38.3,38.2l0,37.4l0.2,0.1l0.1,70.8l70.8-0.1l0.1,0.2
		l37.4,0c21.1,0,38.3,17.1,38.3,38.2c0,21.1-17.1,38.3-38.2,38.3l-108.3,0.2l0.1,108.3c0,21.1-17.1,38.3-38.2,38.3
		c-21.1,0-38.3-17.1-38.3-38.2l0-37.4l-0.2-0.1l-0.1-70.8l-70.8,0.1l-0.1-0.2l-37.4,0C17.2,223.3,0,206.1,0,185.1
		c0-21.1,17.1-38.3,38.2-38.3l108.3-0.2L146.4,38.3z"/>
</g>
</svg>
