<?xml version="1.0" encoding="utf-8"?>
<!-- Generator: Adobe Illustrator 24.3.0, SVG Export Plug-In . SVG Version: 6.00 Build 0)  -->
<svg version="1.1" id="Capa_1" xmlns="http://www.w3.org/2000/svg" xmlns:xlink="http://www.w3.org/1999/xlink" x="0px" y="0px"
	 viewBox="0 0 55.8 33.4" style="enable-background:new 0 0 55.8 33.4;" xml:space="preserve">
<g>
	<path d="M31.8,31.8c0.3-0.3,0.5-0.6,0.7-0.9L54.2,9.3c2.1-2.1,2.1-5.5,0-7.6c-2.1-2.1-5.5-2.1-7.6,0L27.9,20.3L9.2,1.6
		c-2.1-2.1-5.5-2.1-7.6,0C0.5,2.6,0,4,0,5.4c0,1.4,0.5,2.8,1.6,3.8l21.7,21.7c0.2,0.3,0.4,0.6,0.7,0.9c1.1,1.1,2.5,1.6,3.9,1.6
		C29.3,33.4,30.8,32.9,31.8,31.8z"/>
</g>
</svg>
