<?xml version="1.0" encoding="utf-8"?>
<!-- Generator: Adobe Illustrator 24.3.0, SVG Export Plug-In . SVG Version: 6.00 Build 0)  -->
<svg version="1.1" id="Layer_1" xmlns="http://www.w3.org/2000/svg" xmlns:xlink="http://www.w3.org/1999/xlink" x="0px" y="0px"
	 viewBox="0 0 436.8 437" style="enable-background:new 0 0 436.8 437;" xml:space="preserve">
<style type="text/css">
	.st0{fill:#FFFFFF;}
</style>
<path class="st0" d="M434.9,98.8c-5.7-31.6-37.3-71.8-68.9-87.9l-0.1-0.1c-0.2-0.1-0.4-0.2-0.5-0.3l-0.3-0.1c-2-1-4.5-2.3-7.6-3.2
	c-6-1.7-12-3.4-17.7-4.9L331.4,0h-24l-2.1,0.6c-0.4,0.1-0.9,0.3-1.3,0.4c-21.8,3.3-40.8,12.8-56.3,28.4
	C183.5,93.9,117.8,159.8,56,221.7l-17.8,17.8c-9.9,9.9-16.5,22.2-19.5,36.4c-1.9,9.1-3.8,18.1-5.7,27.1l-0.2,0.8
	c-3.3,15.6-6.6,31.7-10,47.5c-2.3,11-4.5,23.9-1.1,37.8C8.9,417.3,34,437,62.9,437c4.3,0,8.7-0.4,12.9-1.3
	c27.4-5.7,54.7-11.1,80.1-16c11.3-2.2,27.8-6.7,41.4-20.3c16.1-16.1,32.2-32.2,48.4-48.4l17.7-17.7c44.7-44.6,95.3-95.2,144.9-145.2
	C432,164.3,441.2,133.4,434.9,98.8z M353.4,137.3c-66,66.5-132.6,133.3-197,197.9l-11.3,11.3c-21.2,3.6-42.9,7.3-64.9,10.9l8.8-44.7
	c0.3-1.5,0.6-2.9,1-4.5l0-0.2c0.8-3.8,1.7-7.7,2.1-12c0.2-2,0.9-3.7,4.2-7c55.1-55,111-111.1,168.3-168.5l35-35.1
	c5.5-5.5,11.9-8.4,18.4-8.4c6.5,0,12.9,2.9,18.3,8.3c1,1,2.1,2.1,3.1,3.1l1.8,1.8c4.1,4,8.3,8.2,12.2,12.3
	C364,113.6,364,126.6,353.4,137.3L353.4,137.3z"/>
</svg>
