<?xml version="1.0" encoding="utf-8"?>
<!-- Generator: Adobe Illustrator 24.3.0, SVG Export Plug-In . SVG Version: 6.00 Build 0)  -->
<svg version="1.1" id="Layer_1" xmlns="http://www.w3.org/2000/svg" xmlns:xlink="http://www.w3.org/1999/xlink" x="0px" y="0px"
	 viewBox="0 0 134 63" style="enable-background:new 0 0 134 63;" xml:space="preserve">
<style type="text/css">
	.st0{fill:#524DD0;}
</style>
<g id="background">
	<path id="Fill-1" class="st0" d="M0,24.2c12.5,0,23.6,6,30.6,15.2l0,0c1.1,2,2.3,3.9,3.6,5.8l0,0c4.3,6,9.8,10.7,16,13.8l0,0
		c5.1,2.5,10.7,3.9,16.5,3.9l0,0c5.8,0,11.3-1.4,16.3-3.8l0,0c6.2-3,11.7-7.8,16.1-13.7l0,0c1.3-1.8,2.5-3.7,3.6-5.7l0,0
		c7-9.2,18.1-15.1,30.5-15.1l0,0c0.1,0,0.2,0,0.3,0l0,0v-12c-0.1,0-0.2,0-0.3,0l0,0c-8.7,0-17,2.2-24.1,6.1l0,0
		c-7,3.8-12.9,9.2-17.4,15.8l0,0c-0.8,1.1-1.5,2.3-2.2,3.5l0,0c-5.6,7.9-13.7,12.9-22.7,12.9l0,0c-9.1,0-17.2-5-22.8-13l0,0
		c-0.7-1.2-1.4-2.5-2.2-3.6l0,0c-4.4-6.5-10.4-12-17.3-15.8l0,0c-7.2-4-15.5-6.2-24.3-6.2l0,0v11.9H0z"/>
</g>
<g id="c">
	<path id="Fill-4" class="st0" d="M48.4,19.6c0,10.5,8.5,18.9,18.9,18.9l0,0c5.7,0,10.9-2.6,14.4-6.6l0,0c0.3-0.4,0.6-0.7,0.9-1.1
		l0,0c0.4-0.7,0.6-1.5,0.6-2.3l0,0c0-2.6-2.1-4.7-4.7-4.7l0,0c-1.4,0-2.6,0.6-3.4,1.5l0,0c-0.1,0.2-0.3,0.4-0.4,0.5l0,0
		c-1.8,2.1-4.4,3.4-7.3,3.4l0,0c-5.3,0-9.7-4.3-9.7-9.7l0,0c0-5.3,4.3-9.7,9.7-9.7l0,0c2.9,0,5.5,1.3,7.3,3.3l0,0
		c0.2,0.2,0.4,0.5,0.6,0.7l0,0c0.8,0.9,2,1.4,3.3,1.4l0,0c2.6,0,4.7-2.1,4.7-4.7l0,0c0-0.9-0.3-1.8-0.8-2.5l0,0
		c-0.2-0.2-0.4-0.5-0.6-0.7l0,0c-3.5-4.2-8.7-6.8-14.5-6.8l0,0C56.9,0.7,48.4,9.2,48.4,19.6"/>
</g>
</svg>
