<?xml version="1.0" encoding="utf-8"?>
<!-- Generator: Adobe Illustrator 24.3.0, SVG Export Plug-In . SVG Version: 6.00 Build 0)  -->
<svg version="1.1" xmlns="http://www.w3.org/2000/svg" xmlns:xlink="http://www.w3.org/1999/xlink" x="0px" y="0px"
	 viewBox="0 0 134 96.9" style="enable-background:new 0 0 134 96.9;" xml:space="preserve">
<style type="text/css">
	.st0{filter:url(#Adobe_OpacityMaskFilter);}
	.st1{fill-rule:evenodd;clip-rule:evenodd;fill:#FFFFFF;}
	.st2{mask:url(#mask-2_1_);fill-rule:evenodd;clip-rule:evenodd;fill:#4F52C9;}
	.st3{filter:url(#Adobe_OpacityMaskFilter_1_);}
	.st4{mask:url(#mask-4_1_);fill-rule:evenodd;clip-rule:evenodd;fill:#4F52C9;}
</style>
<g id="background">
	<defs>
		<filter id="Adobe_OpacityMaskFilter" filterUnits="userSpaceOnUse" x="0" y="46.2" width="133.5" height="50.6">
			<feColorMatrix  type="matrix" values="1 0 0 0 0  0 1 0 0 0  0 0 1 0 0  0 0 0 1 0"/>
		</filter>
	</defs>
	<mask maskUnits="userSpaceOnUse" x="0" y="46.2" width="133.5" height="50.6" id="mask-2_1_">
		<g class="st0">
			<path id="path-1_1_" class="st1" d="M133.5,84.9c-12.5,0-23.6-6-30.6-15.2l0,0c-1.1-2-2.3-3.9-3.6-5.8l0,0
				c-4.3-6-9.8-10.7-16-13.8l0,0c-5.1-2.5-10.7-3.9-16.5-3.9l0,0c-5.8,0-11.3,1.4-16.3,3.8l0,0c-6.2,3-11.7,7.8-16.1,13.7l0,0
				c-1.3,1.8-2.5,3.7-3.6,5.7l0,0c-7,9.2-18.1,15.1-30.5,15.1l0,0c-0.1,0-0.2,0-0.3,0l0,0v12c0.1,0,0.2,0,0.3,0l0,0
				c8.7,0,17-2.2,24.1-6.1l0,0c7-3.8,12.9-9.2,17.4-15.8l0,0c0.8-1.1,1.5-2.3,2.2-3.5l0,0c5.6-7.9,13.7-12.9,22.7-12.9l0,0
				c9.1,0,17.2,5,22.8,13l0,0c0.7,1.2,1.4,2.5,2.2,3.6l0,0c4.4,6.5,10.4,12,17.3,15.8l0,0c7.2,4,15.5,6.2,24.3,6.2l0,0V84.9z"/>
		</g>
	</mask>
	<path id="Fill-1" class="st2" d="M133.5,84.9c-12.5,0-23.6-6-30.6-15.2l0,0c-1.1-2-2.3-3.9-3.6-5.8l0,0c-4.3-6-9.8-10.7-16-13.8
		l0,0c-5.1-2.5-10.7-3.9-16.5-3.9l0,0c-5.8,0-11.3,1.4-16.3,3.8l0,0c-6.2,3-11.7,7.8-16.1,13.7l0,0c-1.3,1.8-2.5,3.7-3.6,5.7l0,0
		c-7,9.2-18.1,15.1-30.5,15.1l0,0c-0.1,0-0.2,0-0.3,0l0,0v12c0.1,0,0.2,0,0.3,0l0,0c8.7,0,17-2.2,24.1-6.1l0,0
		c7-3.8,12.9-9.2,17.4-15.8l0,0c0.8-1.1,1.5-2.3,2.2-3.5l0,0c5.6-7.9,13.7-12.9,22.7-12.9l0,0c9.1,0,17.2,5,22.8,13l0,0
		c0.7,1.2,1.4,2.5,2.2,3.6l0,0c4.4,6.5,10.4,12,17.3,15.8l0,0c7.2,4,15.5,6.2,24.3,6.2l0,0V84.9z"/>
</g>
<g id="c">
	<defs>
		<filter id="Adobe_OpacityMaskFilter_1_" filterUnits="userSpaceOnUse" x="48.4" y="0.7" width="34.8" height="37.9">
			<feColorMatrix  type="matrix" values="1 0 0 0 0  0 1 0 0 0  0 0 1 0 0  0 0 0 1 0"/>
		</filter>
	</defs>
	<mask maskUnits="userSpaceOnUse" x="48.4" y="0.7" width="34.8" height="37.9" id="mask-4_1_">
		<g class="st3">
			<path id="path-3_1_" class="st1" d="M48.4,19.6c0,10.5,8.5,18.9,18.9,18.9l0,0c5.7,0,10.9-2.6,14.4-6.6l0,0
				c0.3-0.4,0.6-0.7,0.9-1.1l0,0c0.4-0.7,0.6-1.5,0.6-2.3l0,0c0-2.6-2.1-4.7-4.7-4.7l0,0c-1.4,0-2.6,0.6-3.4,1.5l0,0
				c-0.1,0.2-0.3,0.4-0.4,0.5l0,0c-1.8,2.1-4.4,3.4-7.3,3.4l0,0c-5.3,0-9.7-4.3-9.7-9.7l0,0c0-5.3,4.3-9.7,9.7-9.7l0,0
				c2.9,0,5.5,1.3,7.3,3.3l0,0c0.2,0.2,0.4,0.5,0.6,0.7l0,0c0.8,0.9,2,1.4,3.3,1.4l0,0c2.6,0,4.7-2.1,4.7-4.7l0,0
				c0-0.9-0.3-1.8-0.8-2.5l0,0c-0.2-0.2-0.4-0.5-0.6-0.7l0,0c-3.5-4.2-8.7-6.8-14.5-6.8l0,0C56.9,0.7,48.4,9.2,48.4,19.6"/>
		</g>
	</mask>
	<path id="Fill-4" class="st4" d="M48.4,19.6c0,10.5,8.5,18.9,18.9,18.9l0,0c5.7,0,10.9-2.6,14.4-6.6l0,0c0.3-0.4,0.6-0.7,0.9-1.1
		l0,0c0.4-0.7,0.6-1.5,0.6-2.3l0,0c0-2.6-2.1-4.7-4.7-4.7l0,0c-1.4,0-2.6,0.6-3.4,1.5l0,0c-0.1,0.2-0.3,0.4-0.4,0.5l0,0
		c-1.8,2.1-4.4,3.4-7.3,3.4l0,0c-5.3,0-9.7-4.3-9.7-9.7l0,0c0-5.3,4.3-9.7,9.7-9.7l0,0c2.9,0,5.5,1.3,7.3,3.3l0,0
		c0.2,0.2,0.4,0.5,0.6,0.7l0,0c0.8,0.9,2,1.4,3.3,1.4l0,0c2.6,0,4.7-2.1,4.7-4.7l0,0c0-0.9-0.3-1.8-0.8-2.5l0,0
		c-0.2-0.2-0.4-0.5-0.6-0.7l0,0c-3.5-4.2-8.7-6.8-14.5-6.8l0,0C56.9,0.7,48.4,9.2,48.4,19.6"/>
</g>
</svg>
